<?xml version="1.0" standalone="no"?>
<!DOCTYPE svg PUBLIC "-//W3C//DTD SVG 20010904//EN"
 "http://www.w3.org/TR/2001/REC-SVG-20010904/DTD/svg10.dtd">
<svg version="1.0" xmlns="http://www.w3.org/2000/svg"
 width="1080.000000pt" height="1080.000000pt" viewBox="0 0 1080.000000 1080.000000"
 preserveAspectRatio="xMidYMid meet">

<g transform="translate(0.000000,1080.000000) scale(0.100000,-0.100000)"
fill="#000000" stroke="none">
<path d="M4375 9664 c-61 -9 -156 -48 -202 -84 -34 -25 -58 -55 -83 -104 -44
-87 -46 -166 -6 -270 15 -38 25 -70 24 -71 -2 -1 -34 2 -72 7 l-69 9 -86 88
c-199 204 -434 301 -726 301 -426 0 -821 -228 -990 -573 -66 -135 -80 -197
-79 -357 1 -246 70 -424 248 -633 32 -37 57 -69 55 -71 -2 -2 -29 -11 -59 -20
-77 -25 -192 -88 -267 -148 -128 -101 -228 -259 -259 -408 -21 -98 -14 -274
16 -385 55 -208 194 -399 377 -521 l53 -35 -34 -37 c-79 -85 -124 -164 -158
-272 -18 -61 -22 -97 -22 -190 1 -133 28 -232 89 -334 20 -32 35 -59 33 -60
-177 -76 -285 -191 -344 -366 -15 -43 -19 -83 -18 -185 0 -114 3 -138 26 -197
39 -103 85 -173 172 -259 44 -44 83 -79 88 -79 5 0 -11 -26 -36 -57 -71 -91
-142 -216 -185 -327 -39 -100 -101 -300 -101 -327 0 -8 -33 -32 -73 -53 -192
-104 -344 -244 -410 -379 -113 -227 -79 -470 87 -624 76 -71 176 -119 279
-135 59 -9 77 -15 77 -28 0 -9 11 -60 25 -113 79 -303 190 -488 332 -555 51
-23 70 -27 153 -26 90 0 124 7 231 49 11 4 24 -7 43 -34 63 -90 205 -168 327
-178 l67 -6 12 -46 c34 -134 171 -295 305 -357 140 -65 222 -79 465 -79 378 0
644 51 1485 285 367 102 583 154 705 170 47 6 101 13 121 15 l36 5 6 -51 c13
-108 105 -213 215 -245 l52 -15 0 -72 c0 -149 58 -277 170 -378 106 -96 227
-147 394 -170 283 -37 639 110 919 380 211 204 338 399 470 723 13 31 26 42
90 71 190 88 410 230 574 372 300 257 495 589 559 950 23 134 24 387 1 506
-58 294 -208 511 -447 642 -80 44 -260 104 -341 113 -50 6 -59 9 -53 23 75
179 76 356 3 503 -16 31 -42 72 -58 90 l-29 34 59 74 c75 93 133 209 160 320
18 71 21 103 16 200 -9 176 -52 283 -160 393 -77 78 -214 151 -317 169 -36 6
-66 12 -68 14 -2 1 32 56 75 122 43 67 92 145 108 173 29 51 32 53 170 113
199 88 309 147 459 246 313 208 531 446 660 721 50 107 67 155 103 289 33 127
44 416 20 555 -40 224 -126 399 -273 551 -211 217 -489 327 -788 311 -195 -10
-328 -62 -446 -173 -116 -110 -170 -240 -170 -414 0 -109 16 -178 61 -258 l30
-53 -35 -39 c-20 -22 -52 -64 -72 -95 l-37 -56 -13 36 c-42 123 -171 224 -359
281 -78 23 -108 27 -225 28 -128 1 -138 -1 -192 -27 -53 -26 -61 -27 -95 -16
-21 8 -39 14 -41 15 -2 1 13 24 34 51 118 153 146 354 74 527 -82 197 -334
352 -542 333 -148 -13 -268 -133 -268 -268 0 -32 -35 -61 -135 -111 -131 -66
-221 -87 -474 -108 -180 -15 -707 -12 -728 4 -1 1 -3 35 -4 76 -5 171 -53 285
-166 398 -85 85 -192 146 -308 177 -61 16 -235 27 -290 19z m148 -219 c168
-35 279 -148 290 -295 4 -54 -12 -187 -34 -283 -6 -26 -9 -50 -7 -52 2 -2 61
-11 130 -20 344 -42 916 -35 1198 15 200 36 394 128 507 241 62 61 85 107 87
168 l2 46 45 -1 c108 -4 235 -104 259 -205 24 -101 -9 -190 -105 -284 -103
-101 -267 -183 -469 -235 -164 -42 -286 -52 -621 -53 -372 0 -712 27 -978 78
-119 23 -122 22 -136 -27 -7 -24 -55 -180 -108 -348 -171 -551 -219 -731 -249
-948 -34 -243 19 -351 166 -339 229 20 551 361 696 737 85 222 190 385 320
493 77 65 201 129 282 146 68 14 182 14 258 0 67 -12 190 -66 243 -106 22 -17
36 -23 39 -15 14 42 53 100 86 126 37 30 41 31 140 31 87 0 110 -4 154 -24 56
-26 70 -46 48 -70 -62 -71 -194 -496 -230 -742 -18 -122 -21 -286 -5 -341 5
-21 21 -50 34 -65 21 -25 29 -28 87 -27 163 2 355 173 511 454 53 96 83 179
121 335 57 230 68 294 75 420 l6 120 38 9 c84 21 276 -28 344 -87 69 -61 68
-73 -62 -467 -101 -306 -137 -450 -139 -546 -1 -87 16 -114 73 -114 66 0 139
44 236 143 156 158 259 340 345 612 83 263 130 344 223 391 84 43 264 42 323
-1 18 -12 18 -14 2 -32 -23 -25 -53 -105 -159 -425 -96 -288 -198 -569 -259
-710 -21 -48 -35 -88 -31 -88 23 0 291 145 361 195 176 127 341 306 439 477
206 359 234 703 75 920 -91 124 -308 200 -479 169 -84 -15 -196 -73 -239 -122
-21 -25 -39 -38 -46 -34 -38 23 -53 171 -26 248 47 131 159 200 343 214 268
20 554 -128 686 -355 90 -155 122 -301 114 -522 -12 -313 -131 -574 -372 -816
-211 -212 -514 -397 -864 -530 l-84 -31 -40 -74 c-169 -314 -322 -514 -490
-640 -171 -129 -360 -188 -516 -159 -174 31 -269 135 -259 283 14 228 291 428
843 611 l141 46 39 108 c21 59 41 114 43 122 3 8 -28 -18 -68 -58 -133 -132
-264 -205 -393 -218 -52 -5 -80 -2 -138 15 -61 19 -81 31 -129 79 -54 54 -78
100 -95 176 l-6 29 -26 -39 c-83 -124 -224 -263 -330 -326 -121 -70 -283 -90
-397 -47 -107 39 -189 152 -219 299 l-13 65 -17 -32 c-29 -55 -115 -156 -179
-210 -73 -62 -173 -116 -247 -133 -77 -18 -224 -9 -285 18 -145 65 -212 156
-273 371 -2 10 -11 3 -25 -20 -75 -124 -277 -337 -396 -418 -149 -101 -287
-146 -423 -139 -244 14 -378 190 -379 497 0 185 47 416 180 891 65 232 152
565 175 676 5 20 -3 23 -108 43 -127 25 -385 56 -393 48 -3 -3 -11 -34 -19
-70 -7 -35 -26 -88 -40 -117 -33 -65 -114 -153 -173 -187 -180 -106 -417 -75
-499 64 -35 60 -30 141 15 236 61 130 190 223 367 265 l79 19 -47 50 c-82 88
-211 130 -367 120 -207 -14 -346 -103 -396 -256 -12 -38 -15 -76 -12 -149 4
-90 7 -103 43 -170 51 -97 145 -196 307 -323 271 -214 325 -259 406 -341 126
-128 188 -230 223 -366 58 -227 -24 -504 -202 -681 -178 -177 -431 -261 -743
-248 -262 11 -455 95 -590 257 -79 96 -136 260 -136 393 0 169 111 336 280
422 160 81 366 71 439 -21 36 -46 25 -142 -21 -191 -20 -21 -20 -21 -61 -2
-53 23 -81 23 -133 0 -87 -40 -144 -154 -125 -253 24 -132 86 -233 183 -297
243 -164 601 -26 719 276 16 42 23 86 27 161 4 103 4 104 -32 177 -60 122
-121 177 -496 445 -305 218 -445 400 -480 623 -31 190 25 350 175 502 170 173
431 269 688 252 227 -15 447 -141 547 -315 l35 -60 90 -7 c50 -4 178 -20 285
-35 107 -15 197 -26 200 -23 3 3 5 80 4 171 0 154 -2 173 -27 245 -33 94 -33
113 -4 128 56 31 131 35 230 14z m1926 -2726 c121 -28 222 -108 275 -219 28
-58 31 -75 31 -160 0 -151 -49 -251 -149 -302 -52 -26 -159 -35 -221 -18 -67
19 -73 33 -27 66 76 55 123 150 124 251 0 107 -49 164 -149 170 -44 3 -67 -1
-93 -15 -133 -73 -161 -331 -69 -629 l21 -66 91 7 c424 30 600 12 720 -71 172
-120 124 -412 -86 -519 -56 -29 -141 -43 -151 -25 -4 6 -2 28 5 49 7 20 12 63
12 94 -1 104 -59 184 -170 235 -58 27 -203 59 -295 65 l-58 5 92 -176 c50 -97
108 -210 128 -251 111 -225 144 -414 101 -583 -26 -101 -53 -150 -119 -219
-154 -162 -418 -195 -565 -72 -47 40 -77 84 -77 115 0 25 6 29 54 43 84 25
140 76 186 171 72 148 61 350 -31 583 -17 42 -60 143 -97 224 l-66 148 -176
-3 c-151 -2 -183 1 -235 18 -147 48 -225 202 -166 330 36 81 155 163 221 153
20 -2 25 -12 35 -58 15 -75 40 -124 83 -161 36 -32 140 -84 149 -75 3 2 -2 28
-10 58 -41 142 -50 299 -27 427 14 80 59 181 105 237 69 84 207 155 339 174
76 11 215 11 265 -1z m-1949 -279 c108 -21 207 -86 259 -170 l17 -30 33 46
c46 66 121 99 221 98 45 -1 89 -7 111 -17 48 -21 99 -65 99 -84 0 -9 -18 -51
-40 -95 -119 -238 -229 -734 -217 -978 6 -127 28 -197 74 -242 31 -30 40 -33
92 -33 47 0 64 5 92 26 88 67 146 284 104 386 -12 29 -13 38 -3 45 34 23 152
-31 195 -89 48 -66 66 -117 71 -198 8 -175 -88 -334 -258 -424 -157 -84 -388
-83 -532 2 -91 53 -188 185 -222 300 l-11 39 -53 -66 c-207 -259 -542 -312
-752 -119 -70 64 -117 143 -148 246 -21 71 -25 102 -25 227 0 247 65 481 196
711 172 302 446 467 697 419z m-1515 -40 c211 -24 371 -118 436 -255 59 -122
30 -278 -63 -345 -52 -38 -127 -54 -227 -48 -98 6 -116 17 -68 45 52 31 80 98
75 181 -6 116 -69 171 -203 180 -84 5 -138 -8 -192 -47 -54 -39 -77 -91 -77
-167 1 -128 69 -213 322 -402 262 -195 342 -297 350 -445 14 -238 -174 -444
-473 -519 -127 -32 -324 -32 -445 1 -192 51 -325 148 -389 281 -22 47 -26 68
-26 145 0 78 4 97 28 147 59 120 192 186 350 176 89 -5 96 -14 58 -69 -64 -90
-64 -235 0 -312 50 -60 100 -82 194 -82 71 0 86 3 135 31 107 60 146 171 97
278 -35 75 -96 139 -264 273 -215 171 -289 251 -331 359 -61 155 -23 315 103
432 97 91 230 145 395 162 111 11 117 11 215 0z m5251 -375 c116 -33 200 -121
224 -234 76 -361 -339 -730 -742 -659 l-76 14 -13 -65 c-20 -99 -17 -274 4
-344 35 -114 122 -175 236 -164 156 14 270 152 275 332 3 92 8 99 63 92 54 -6
87 -29 128 -86 28 -40 30 -49 30 -134 0 -81 -3 -98 -28 -147 -110 -213 -318
-332 -587 -334 -170 -1 -278 36 -381 131 -169 157 -224 492 -137 843 94 384
421 719 749 769 77 12 185 5 255 -14z m-4809 -1473 c15 -9 22 -32 153 -490 56
-195 99 -360 96 -368 -7 -19 -149 -20 -165 -1 -6 8 -19 40 -29 73 l-18 59
-107 3 c-120 3 -114 7 -137 -85 -13 -53 -32 -63 -115 -63 -50 0 -67 4 -72 15
-8 23 226 837 245 853 17 13 129 16 149 4z m625 -232 l117 -235 0 225 c1 162
4 229 13 238 7 7 39 12 73 12 34 0 66 -5 73 -12 17 -17 17 -839 0 -856 -7 -7
-38 -12 -70 -12 -44 0 -62 4 -74 19 -9 10 -70 123 -136 252 -66 129 -124 238
-129 244 -5 5 -9 -99 -9 -247 0 -224 -2 -257 -16 -262 -20 -8 -92 -8 -121 0
l-23 6 0 428 c0 333 3 429 13 434 6 2 48 4 92 3 l80 -2 117 -235z m758 207
c52 -16 76 -31 121 -76 78 -79 100 -140 107 -295 13 -336 -123 -475 -469 -476
-53 0 -80 4 -88 14 -8 9 -10 131 -9 432 l3 419 85 5 c115 7 173 2 250 -23z
m-2110 -154 c54 -24 113 -86 131 -139 8 -22 14 -76 13 -121 0 -74 -4 -90 -37
-157 -68 -136 -232 -263 -470 -361 -62 -25 -123 -51 -136 -56 l-24 -10 6 -252
c6 -217 9 -268 17 -297 1 -3 8 19 16 49 41 152 159 307 284 372 63 33 69 34
181 34 111 0 118 -1 165 -30 98 -60 132 -192 105 -412 -7 -54 -33 -195 -58
-313 -64 -304 -72 -347 -72 -420 -1 -81 16 -110 63 -110 96 0 161 151 191 445
31 306 35 336 65 427 43 135 100 230 189 319 121 121 243 167 373 140 102 -22
157 -77 179 -179 26 -125 -25 -272 -134 -389 -98 -105 -208 -166 -341 -188
l-39 -6 5 -82 c11 -164 67 -267 145 -267 78 0 165 63 256 184 66 89 161 275
176 346 53 243 68 288 130 395 94 162 237 255 390 255 80 0 147 -28 211 -89
24 -22 44 -40 44 -39 25 74 136 110 230 74 60 -23 76 -42 49 -61 -43 -30 -112
-222 -153 -428 -47 -236 -49 -438 -4 -488 42 -47 123 -1 174 100 46 91 61 158
71 311 20 304 94 590 217 835 111 222 231 345 370 380 74 19 153 8 198 -27 82
-65 84 -229 5 -387 -81 -159 -275 -357 -434 -441 l-44 -24 -16 -90 c-43 -241
-49 -499 -13 -581 22 -52 52 -82 87 -90 45 -10 131 35 199 104 108 111 134
167 250 551 22 74 43 144 46 154 6 17 3 17 -32 -4 -106 -65 -163 -133 -184
-220 -14 -58 -21 -65 -52 -49 -71 36 -95 91 -78 173 23 111 120 190 306 248
l100 32 23 78 c50 175 72 294 78 426 7 147 10 155 73 155 69 0 130 -24 177
-68 35 -34 43 -48 43 -78 0 -61 -33 -195 -109 -437 l-8 -26 116 14 116 15 61
126 c123 252 260 391 431 436 198 52 343 -42 343 -221 0 -176 -228 -336 -577
-404 l-61 -12 -26 -92 c-25 -90 -58 -215 -70 -269 -6 -24 3 -18 66 45 157 159
348 226 468 166 54 -28 79 -69 87 -142 11 -109 -30 -252 -167 -586 -137 -335
-157 -422 -105 -456 59 -39 136 30 219 196 67 134 100 239 177 560 48 200 62
274 63 344 3 103 10 112 85 102 68 -9 147 -52 176 -94 35 -51 32 -102 -15
-286 -22 -86 -58 -225 -79 -309 -63 -243 -64 -337 -6 -337 83 0 206 128 318
330 59 108 85 186 126 383 22 104 48 203 58 220 23 39 99 79 163 85 61 6 131
-4 156 -23 19 -13 18 -14 -2 -37 -46 -49 -78 -139 -214 -593 -55 -181 -110
-365 -124 -407 -13 -43 -22 -78 -20 -78 10 0 129 63 192 102 357 219 640 556
738 883 24 78 27 108 28 225 0 110 -4 149 -22 213 -31 111 -73 186 -142 260
-149 160 -394 194 -537 73 -74 -62 -108 -202 -63 -259 16 -20 17 -27 7 -36
-29 -24 -92 -42 -145 -42 -134 -1 -191 63 -192 212 0 65 4 85 31 137 76 153
263 242 509 243 240 0 412 -67 544 -212 59 -65 114 -169 141 -264 23 -80 32
-346 15 -456 -67 -461 -397 -854 -945 -1127 -77 -38 -157 -75 -177 -83 -33
-11 -39 -19 -64 -88 -158 -436 -411 -751 -730 -910 -127 -63 -196 -83 -315
-88 -158 -8 -275 32 -356 120 -106 115 -73 279 86 437 171 169 467 322 976
503 l150 53 47 134 c26 74 47 141 47 149 1 8 -13 -6 -30 -32 -41 -62 -140
-152 -202 -184 -75 -38 -188 -44 -252 -13 -25 12 -56 38 -69 57 l-24 35 -32
-60 c-76 -143 -182 -222 -297 -222 -131 0 -217 84 -230 223 -11 117 34 272
182 635 99 244 114 326 65 352 -54 29 -163 -46 -245 -170 -132 -198 -225 -473
-225 -664 0 -74 -3 -87 -19 -96 -51 -27 -154 2 -178 50 -7 14 -13 62 -13 108
l0 84 -39 -49 c-78 -99 -151 -142 -242 -143 -106 0 -194 88 -220 222 l-11 57
-40 -61 c-85 -132 -202 -215 -315 -225 -132 -12 -231 53 -286 189 l-23 56 -42
-82 c-51 -99 -127 -187 -188 -216 -64 -31 -157 -25 -207 13 -47 36 -93 130
-108 221 l-12 75 -39 -59 c-47 -70 -114 -132 -183 -168 -42 -22 -63 -27 -130
-27 -57 0 -89 5 -111 17 -75 41 -131 125 -154 230 l-13 57 -34 -67 c-93 -180
-248 -321 -397 -359 -112 -28 -249 7 -315 82 l-30 34 -12 -37 c-40 -124 -134
-254 -212 -293 -128 -66 -274 -8 -329 129 -20 51 -23 73 -22 212 0 131 6 191
39 390 42 260 52 444 26 493 -30 56 -106 59 -167 4 -64 -55 -118 -198 -145
-382 -18 -124 -18 -459 0 -554 l15 -74 -33 -27 c-43 -36 -131 -64 -176 -56
-41 8 -74 46 -119 135 -110 217 -162 594 -137 980 7 95 10 175 7 178 -2 2 -35
-27 -73 -65 -133 -133 -183 -294 -135 -435 l19 -58 -25 -10 c-29 -11 -105 2
-151 25 -80 42 -127 131 -118 222 17 165 141 295 401 420 l111 53 23 113 c77
380 233 640 431 720 64 26 245 21 311 -9z m3505 -2293 c133 -19 227 -65 281
-136 26 -33 29 -46 29 -109 0 -61 -4 -77 -27 -113 -15 -22 -47 -53 -72 -67
-52 -30 -138 -44 -161 -25 -13 11 -12 16 10 42 31 36 39 68 32 115 -17 99
-154 152 -362 140 -202 -13 -415 -60 -940 -207 -726 -203 -1039 -264 -1370
-264 -194 0 -259 11 -355 59 -70 36 -106 70 -136 130 -24 51 -26 63 -22 148 4
79 9 100 36 152 36 69 56 94 94 119 25 17 27 17 36 -1 5 -10 13 -34 17 -53 11
-51 54 -127 92 -161 88 -77 212 -111 408 -112 203 -1 361 24 1095 173 784 159
1100 200 1315 170z"/>
<path d="M3450 8724 c-133 -28 -220 -95 -220 -169 0 -69 67 -100 160 -75 83
22 150 124 150 227 0 37 1 37 -90 17z"/>
<path d="M5904 8052 c-28 -10 -69 -32 -92 -50 -200 -159 -318 -647 -211 -869
51 -105 173 -97 295 19 124 117 257 371 315 601 20 82 20 87 4 142 -30 103
-123 176 -224 175 -20 -1 -59 -9 -87 -18z"/>
<path d="M7685 6706 c-272 -99 -452 -203 -517 -299 -38 -55 -36 -91 7 -134 35
-35 36 -36 109 -31 148 10 279 105 398 288 72 111 122 210 106 210 -7 -1 -53
-16 -103 -34z"/>
<path d="M4374 6161 c-128 -74 -236 -265 -302 -531 -21 -87 -26 -129 -26 -245
-1 -128 1 -145 24 -200 42 -99 127 -133 219 -85 132 67 271 335 333 640 44
219 30 349 -46 420 -21 19 -40 25 -89 28 -54 3 -68 -1 -113 -27z"/>
<path d="M8050 5771 c-111 -34 -237 -177 -317 -361 l-32 -75 27 -8 c64 -18
202 17 294 76 134 85 223 253 178 337 -18 33 -92 48 -150 31z"/>
<path d="M3322 4149 c-18 -85 -32 -162 -32 -171 0 -15 10 -18 65 -18 55 0 65
3 65 18 -1 9 -16 86 -34 171 l-32 155 -32 -155z"/>
<path d="M4637 4423 c-4 -3 -7 -143 -7 -310 0 -338 -3 -323 70 -303 55 15 112
69 141 133 20 45 24 68 24 172 0 104 -3 126 -23 170 -13 28 -35 63 -50 79 -43
46 -134 81 -155 59z"/>
<path d="M2454 4241 c-106 -48 -197 -230 -243 -489 -10 -56 -17 -102 -14 -102
2 0 32 14 66 31 237 119 378 279 379 430 0 80 -13 114 -51 134 -40 20 -87 19
-137 -4z"/>
<path d="M7055 4025 c-70 -24 -155 -126 -225 -267 -33 -67 -60 -126 -60 -130
0 -13 25 -9 112 18 166 52 304 139 343 215 32 61 10 135 -49 163 -41 19 -68
20 -121 1z"/>
<path d="M5718 3982 c-45 -30 -89 -92 -144 -207 -55 -115 -131 -331 -121 -342
4 -3 31 13 61 36 152 114 337 434 296 511 -13 25 -56 26 -92 2z"/>
<path d="M6345 3444 c-44 -8 -84 -19 -89 -24 -12 -12 -120 -357 -156 -500 -69
-271 -58 -403 32 -386 101 20 188 180 234 427 27 151 71 337 102 437 l20 62
-32 -1 c-17 0 -67 -7 -111 -15z"/>
<path d="M4443 3360 c-179 -109 -297 -733 -154 -810 77 -41 185 50 254 215 36
84 43 112 78 290 33 166 34 188 9 239 -38 79 -119 108 -187 66z"/>
<path d="M3595 3311 c-23 -10 -54 -33 -70 -52 -57 -68 -116 -221 -140 -368
l-7 -44 38 8 c85 15 167 77 230 172 121 182 91 350 -51 284z"/>
<path d="M7593 1915 c-471 -193 -773 -378 -844 -517 -23 -44 -25 -108 -4 -147
45 -88 260 -91 430 -7 175 87 334 273 478 561 42 85 78 165 74 165 -1 -1 -61
-25 -134 -55z"/>
</g>
</svg>
